<mxfile host="app.diagrams.net" modified="2023-10-22T09:03:14.125Z" agent="Mozilla/5.0 (Windows NT 10.0; Win64; x64) AppleWebKit/537.36 (KHTML, like Gecko) Chrome/118.0.0.0 Safari/537.36" version="22.0.6" etag="tLlgZG8OmnvKBuFxF_Yd" type="github">
  <diagram name="페이지-1" id="Cs_HX5UNAHFeJVzkgtsh">
    <mxGraphModel>
      <root>
        <mxCell id="0" />
        <mxCell id="1" parent="0" />
      </root>
    </mxGraphModel>
  </diagram>
</mxfile>
